<?xml version="1.0" encoding="UTF-8" standalone="no"?>
<svg
   width="30"
   height="30"
   viewBox="0 0 30 30"
   fill="none"
   version="1.1"
   id="svg66"
   sodipodi:docname="ru.yandex-team.sign.svg"
   inkscape:version="1.1.2 (0a00cf5339, 2022-02-04)"
   xmlns:inkscape="http://www.inkscape.org/namespaces/inkscape"
   xmlns:sodipodi="http://sodipodi.sourceforge.net/DTD/sodipodi-0.dtd"
   xmlns="http://www.w3.org/2000/svg"
   xmlns:svg="http://www.w3.org/2000/svg">
  <sodipodi:namedview
     id="namedview68"
     pagecolor="#ffffff"
     bordercolor="#666666"
     borderopacity="1.0"
     inkscape:pageshadow="2"
     inkscape:pageopacity="0.0"
     inkscape:pagecheckerboard="0"
     showgrid="false"
     inkscape:zoom="5.751073"
     inkscape:cx="42.600746"
     inkscape:cy="2.1735075"
     inkscape:window-width="3002"
     inkscape:window-height="1664"
     inkscape:window-x="0"
     inkscape:window-y="0"
     inkscape:window-maximized="1"
     inkscape:current-layer="svg66" />
  <g
     clip-path="url(#clip0_799_376)"
     id="g17"
     transform="translate(0,-1)">
    <path
       d="M 15,31 C 23.2843,31 30.0001,24.2843 30.0001,16 30.0001,7.71568 23.2843,0.999939 15,0.999939 6.71574,0.999939 0,7.71568 0,16 0,24.2843 6.71574,31 15,31 Z"
       fill="url(#paint0_linear_799_376)"
       id="path2"
       style="fill:url(#paint0_linear_799_376)" />
    <mask
       id="mask0_799_376"
       maskUnits="userSpaceOnUse"
       x="0"
       y="1"
       width="30"
       height="30">
      <path
         d="M 15,31 C 23.2843,31 30.0001,24.2843 30.0001,16 30.0001,7.71568 23.2843,0.999939 15,0.999939 6.71574,0.999939 0,7.71568 0,16 0,24.2843 6.71574,31 15,31 Z"
         fill="#ffffff"
         id="path4" />
    </mask>
    <g
       mask="url(#mask0_799_376)"
       id="g13">
      <path
         d="M 24.2424,23.0238 4.3398,29.3442 C 3.34413,29.658 2.29434,29.1061 1.98049,28.1212 L -5.09745,5.89175 C -5.4113,4.89608 -4.85935,3.84629 -3.8745,3.53244 l 19.9026,-6.33118 c 0.9957,-0.31385 2.0455,0.23809 2.3593,1.22294 l 7.078,22.2295 c 0.3138,0.9957 -0.2273,2.0563 -1.223,2.3701 z"
         fill="url(#paint1_linear_799_376)"
         id="path7"
         style="fill:url(#paint1_linear_799_376)" />
      <path
         d="M 16.6558,22.5152 H -4.7403 c -0.84416,0 -1.5368,-0.6927 -1.5368,-1.5368 V -3.70783 c 0,-0.84416 0.69264,-1.5368 1.5368,-1.5368 h 21.3961 c 0.8442,0 1.5368,0.69264 1.5368,1.5368 V 20.9784 c 0,0.8441 -0.6818,1.5368 -1.5368,1.5368 z"
         fill="url(#paint2_linear_799_376)"
         id="path9"
         style="fill:url(#paint2_linear_799_376)" />
      <path
         d="m 14.4805,20.3182 c -0.0433,0 -0.0974,-0.0108 -0.1407,-0.0217 -0.0541,-0.0108 -1.2446,-0.3896 -1.7749,-1.5043 -0.1407,-0.303 -0.2272,-0.6277 -0.2489,-0.974 -1.2554,1.0606 -3.36579,2.4026 -5.23809,1.4935 -0.44372,-0.2165 -0.7684,-0.5411 -0.98485,-0.9632 -0.9632,0.3247 -2.01299,0.4762 -3.0736,0.3247 -0.25974,-0.0325 -0.44372,-0.2814 -0.41125,-0.5412 0.03246,-0.2597 0.27056,-0.4437 0.54112,-0.4112 0.93074,0.1299 1.83983,0 2.67317,-0.2814 -0.0974,-0.7359 0.02164,-1.6234 0.37879,-2.5866 0.66017,-1.7532 1.98052,-3.355 3.2684,-3.0195 0.99571,0.2598 1.46101,1.039 1.24461,2.078 -0.2814,1.3852 -1.75327,3.0952 -3.72297,4.0584 0.11905,0.2056 0.29221,0.368 0.50866,0.4762 2.17533,1.0606 5.16231,-2.2836 5.19481,-2.316 0.1515,-0.1732 0.4113,-0.2165 0.6061,-0.0866 0.1948,0.119 0.2814,0.368 0.1948,0.5844 -0.2706,0.6818 -0.2922,1.2662 -0.0758,1.7424 0.3463,0.736 1.1905,1.0065 1.2013,1.0174 0.2489,0.0757 0.3896,0.3463 0.3139,0.5952 -0.065,0.1948 -0.2489,0.3355 -0.4546,0.3355 z M 9.11255,12.7316 c -0.54113,0 -1.47187,0.974 -2.02382,2.4351 C 6.87228,15.7511 6.72077,16.4221 6.74241,17.0173 8.38744,16.1623 9.56709,14.7338 9.7619,13.7056 9.90259,13.013 9.53463,12.829 9.20995,12.7424 9.18831,12.7316 9.14502,12.7316 9.11255,12.7316 Z"
         fill="#000000"
         id="path11" />
    </g>
    <path
       d="M 14.9675,17.5584 25.2056,4.87443 c 0.4113,-0.50866 1.158,-0.58442 1.6667,-0.17316 0.5086,0.41126 0.5844,1.15801 0.1731,1.65585 L 16.8073,19.0519 c -0.0866,0.1083 -0.1948,0.1949 -0.3138,0.2598 l -1.8074,0.9632 c -0.2489,0.1299 -0.5303,-0.0974 -0.4545,-0.368 l 0.5411,-1.9805 c 0.0433,-0.1299 0.1082,-0.2597 0.1948,-0.368 z"
       fill="url(#paint3_linear_799_376)"
       id="path15"
       style="fill:url(#paint3_linear_799_376)" />
  </g>
  <defs
     id="defs64">
    <linearGradient
       id="paint0_linear_799_376"
       x1="10.3814"
       y1="1.8773299"
       x2="19.711599"
       y2="30.4069"
       gradientUnits="userSpaceOnUse">
      <stop
         stop-color="#4A37B7"
         id="stop21" />
      <stop
         offset="0.2723"
         stop-color="#5746C2"
         id="stop23" />
      <stop
         offset="0.6277"
         stop-color="#6253CB"
         id="stop25" />
      <stop
         offset="0.9633"
         stop-color="#6657CE"
         id="stop27" />
    </linearGradient>
    <linearGradient
       id="paint1_linear_799_376"
       x1="-1.5893199"
       y1="4.1528001"
       x2="22.664301"
       y2="22.938101"
       gradientUnits="userSpaceOnUse">
      <stop
         offset="0.2114"
         stop-color="#8564FF"
         id="stop30" />
      <stop
         offset="0.2988"
         stop-color="#886BFF"
         id="stop32" />
      <stop
         offset="0.6332"
         stop-color="#9280FF"
         id="stop34" />
      <stop
         offset="0.8512"
         stop-color="#9688FF"
         id="stop36" />
    </linearGradient>
    <linearGradient
       id="paint2_linear_799_376"
       x1="-5.6949701"
       y1="-1.70078"
       x2="23.3727"
       y2="24.076799"
       gradientUnits="userSpaceOnUse">
      <stop
         stop-color="#E1C9FD"
         id="stop39" />
      <stop
         offset="0.3198"
         stop-color="#E9D7FD"
         id="stop41" />
      <stop
         offset="0.744"
         stop-color="#F7F0FE"
         id="stop43" />
      <stop
         offset="0.8676"
         stop-color="#FDFBFF"
         id="stop45" />
      <stop
         offset="1"
         stop-color="white"
         id="stop47" />
    </linearGradient>
    <linearGradient
       id="paint3_linear_799_376"
       x1="18.443199"
       y1="10.6789"
       x2="24.405701"
       y2="15.583"
       gradientUnits="userSpaceOnUse">
      <stop
         offset="0.1889"
         stop-color="#4722AF"
         id="stop50" />
      <stop
         offset="0.2957"
         stop-color="#331B7A"
         id="stop52" />
      <stop
         offset="0.4005"
         stop-color="#22164E"
         id="stop54" />
      <stop
         offset="0.4814"
         stop-color="#181232"
         id="stop56" />
      <stop
         offset="0.5285"
         stop-color="#141128"
         id="stop58" />
    </linearGradient>
    <clipPath
       id="clip0_799_376">
      <rect
         width="30"
         height="30"
         fill="#ffffff"
         transform="translate(0,1)"
         id="rect61"
         x="0"
         y="0" />
    </clipPath>
  </defs>
</svg>
